# xmcd CD database file
#
# Track frame offsets:
#	150
#	57697
#	90622
#	123107
#	143030
#	162383
#	223819
#	260195
#	287524
#	307521
#	330498
#
# Disc length: 4785 seconds
#
# Revision: 0
# Processed by: cddbd v1.5.2PL0 Copyright (c) Steve Scherf et al.
# Submitted via: CDex 1.51
#
DISCID=9f12af0b
DTITLE=Freddie King - The Blues Live !
DYEAR=2012
DGENRE=Blues
TTITLE0=Have You Ever Loved A Woman
TTITLE1=Mojo Boogie
TTITLE2=You`re The One
TTITLE3=Messin' With The Kid
TTITLE4=Going Down
TTITLE5=Stormy Monday
TTITLE6=Let The Good Times Roll
TTITLE7=Sweet Home Chicago
TTITLE8=Hide Away
TTITLE9=Rock Me Baby
TTITLE10=Sweet Little Angel
EXTD=YEAR: 2012
EXTT0=
EXTT1=
EXTT2=
EXTT3=
EXTT4=
EXTT5=
EXTT6=
EXTT7=
EXTT8=
EXTT9=
EXTT10=
PLAYORDER=
